<svg width="320" height="81" viewBox="0 0 320 81" fill="none" xmlns="http://www.w3.org/2000/svg">
<rect width="320" height="81" rx="10" fill="#E6EDFE"/>
<mask id="mask0_162_299" style="mask-type:alpha" maskUnits="userSpaceOnUse" x="0" y="0" width="320" height="81">
<rect width="320" height="81" rx="10" fill="#84DBC7"/>
</mask>
<g mask="url(#mask0_162_299)">
<path d="M49.5846 34.4851C49.5846 19.6705 70.5471 5.61386 83.8503 0H0V81H76.1908C79.4158 67.7673 72.1594 57.7426 64.5002 52.9307C56.841 48.1188 49.5846 46.4684 49.5846 34.4851Z" fill="#CDDBFC"/>
<path d="M170.738 27.8967C157.18 14.1772 163.503 1.87705 168.36 -2.55811H320V37.0627C285.212 74.318 262.02 47.1157 259.939 40.3151C257.857 33.5145 255.776 10.4517 223.069 30.2621C190.362 50.0725 187.686 45.0459 170.738 27.8967Z" fill="#DEE0FF"/>
<path d="M210.481 83.5576C210.481 98.6263 198.223 110.842 183.101 110.842C167.98 110.842 155.722 98.6263 155.722 83.5576C152.732 55.7529 162.38 59.5602 173.451 65.2463C179.41 68.3063 186.242 67.2231 192.354 64.485C208.286 57.3486 210.481 70.6573 210.481 83.5576Z" fill="#A7C1FB"/>
<path d="M40.0909 45.1875C39.9716 44.7727 39.804 44.4062 39.5881 44.0881C39.3722 43.7642 39.108 43.4915 38.7955 43.2699C38.4886 43.0426 38.1364 42.8693 37.7386 42.75C37.3466 42.6307 36.9119 42.571 36.4347 42.571C35.5426 42.571 34.7585 42.7926 34.0824 43.2358C33.4119 43.679 32.8892 44.3239 32.5142 45.1705C32.1392 46.0114 31.9517 47.0398 31.9517 48.2557C31.9517 49.4716 32.1364 50.5057 32.5057 51.358C32.875 52.2102 33.3977 52.8608 34.0739 53.3097C34.75 53.7528 35.5483 53.9744 36.4688 53.9744C37.304 53.9744 38.017 53.8267 38.608 53.5312C39.2045 53.2301 39.6591 52.8068 39.9716 52.2614C40.2898 51.7159 40.4489 51.071 40.4489 50.3267L41.1989 50.4375H36.6989V47.6591H44.0028V49.858C44.0028 51.392 43.679 52.7102 43.0312 53.8125C42.3835 54.9091 41.4915 55.7557 40.3551 56.3523C39.2188 56.9432 37.9176 57.2386 36.4517 57.2386C34.8153 57.2386 33.3778 56.8778 32.1392 56.1562C30.9006 55.429 29.9347 54.3977 29.2415 53.0625C28.554 51.7216 28.2102 50.1307 28.2102 48.2898C28.2102 46.875 28.4148 45.6136 28.8239 44.5057C29.2386 43.392 29.8182 42.4489 30.5625 41.6761C31.3068 40.9034 32.1733 40.3153 33.1619 39.9119C34.1506 39.5085 35.2216 39.3068 36.375 39.3068C37.3636 39.3068 38.2841 39.4517 39.1364 39.7415C39.9886 40.0256 40.7443 40.429 41.4034 40.9517C42.0682 41.4744 42.6108 42.0966 43.0312 42.8182C43.4517 43.5341 43.7216 44.3239 43.8409 45.1875H40.0909ZM52.6726 57.2557C51.326 57.2557 50.1669 56.983 49.1953 56.4375C48.2294 55.8864 47.4851 55.108 46.9624 54.1023C46.4396 53.0909 46.1783 51.8949 46.1783 50.5142C46.1783 49.1676 46.4396 47.9858 46.9624 46.9688C47.4851 45.9517 48.2209 45.1591 49.1697 44.5909C50.1243 44.0227 51.2436 43.7386 52.5277 43.7386C53.3913 43.7386 54.1953 43.8778 54.9396 44.1562C55.6896 44.429 56.343 44.8409 56.8999 45.392C57.4624 45.9432 57.8999 46.6364 58.2124 47.4716C58.5249 48.3011 58.6811 49.2727 58.6811 50.3864V51.3835H47.6271V49.1335H55.2635C55.2635 48.6108 55.1499 48.1477 54.9226 47.7443C54.6953 47.3409 54.38 47.0256 53.9766 46.7983C53.5788 46.5653 53.1158 46.4489 52.5874 46.4489C52.0362 46.4489 51.5476 46.5767 51.1214 46.8324C50.701 47.0824 50.3714 47.4205 50.1328 47.8466C49.8942 48.267 49.772 48.7358 49.7663 49.2528V51.392C49.7663 52.0398 49.8857 52.5994 50.1243 53.071C50.3686 53.5426 50.7124 53.9062 51.1555 54.1619C51.5987 54.4176 52.1243 54.5455 52.7322 54.5455C53.1357 54.5455 53.505 54.4886 53.8402 54.375C54.1754 54.2614 54.4624 54.0909 54.701 53.8636C54.9396 53.6364 55.1214 53.358 55.2464 53.0284L58.6044 53.25C58.4339 54.0568 58.0845 54.7614 57.5561 55.3636C57.0334 55.9602 56.3572 56.4261 55.5277 56.7614C54.7038 57.0909 53.7521 57.2557 52.6726 57.2557ZM68.0135 43.9091V46.6364H60.13V43.9091H68.0135ZM61.9197 40.7727H65.5504V52.9773C65.5504 53.3125 65.6016 53.5739 65.7038 53.7614C65.8061 53.9432 65.9482 54.071 66.13 54.1449C66.3175 54.2187 66.5334 54.2557 66.7777 54.2557C66.9482 54.2557 67.1186 54.2415 67.2891 54.2131C67.4595 54.179 67.5902 54.1534 67.6811 54.1364L68.2521 56.8381C68.0703 56.8949 67.8146 56.9602 67.4851 57.0341C67.1555 57.1136 66.755 57.1619 66.2834 57.179C65.4084 57.2131 64.6413 57.0966 63.9822 56.8295C63.3288 56.5625 62.8203 56.1477 62.4567 55.5852C62.093 55.0227 61.9141 54.3125 61.9197 53.4545V40.7727ZM82.8963 43.9091V46.6364H75.0128V43.9091H82.8963ZM76.8026 40.7727H80.4332V52.9773C80.4332 53.3125 80.4844 53.5739 80.5866 53.7614C80.6889 53.9432 80.831 54.071 81.0128 54.1449C81.2003 54.2187 81.4162 54.2557 81.6605 54.2557C81.831 54.2557 82.0014 54.2415 82.1719 54.2131C82.3423 54.179 82.473 54.1534 82.5639 54.1364L83.1349 56.8381C82.9531 56.8949 82.6974 56.9602 82.3679 57.0341C82.0384 57.1136 81.6378 57.1619 81.1662 57.179C80.2912 57.2131 79.5241 57.0966 78.8651 56.8295C78.2116 56.5625 77.7031 56.1477 77.3395 55.5852C76.9759 55.0227 76.7969 54.3125 76.8026 53.4545V40.7727ZM91.0355 57.2557C89.7116 57.2557 88.5668 56.9744 87.6009 56.4119C86.6406 55.8437 85.8991 55.054 85.3764 54.0426C84.8537 53.0256 84.5923 51.8466 84.5923 50.5057C84.5923 49.1534 84.8537 47.9716 85.3764 46.9602C85.8991 45.9432 86.6406 45.1534 87.6009 44.5909C88.5668 44.0227 89.7116 43.7386 91.0355 43.7386C92.3594 43.7386 93.5014 44.0227 94.4616 44.5909C95.4276 45.1534 96.1719 45.9432 96.6946 46.9602C97.2173 47.9716 97.4787 49.1534 97.4787 50.5057C97.4787 51.8466 97.2173 53.0256 96.6946 54.0426C96.1719 55.054 95.4276 55.8437 94.4616 56.4119C93.5014 56.9744 92.3594 57.2557 91.0355 57.2557ZM91.0526 54.4432C91.6548 54.4432 92.1577 54.2727 92.5611 53.9318C92.9645 53.5852 93.2685 53.1136 93.473 52.517C93.6832 51.9205 93.7884 51.2415 93.7884 50.4801C93.7884 49.7188 93.6832 49.0398 93.473 48.4432C93.2685 47.8466 92.9645 47.375 92.5611 47.0284C92.1577 46.6818 91.6548 46.5085 91.0526 46.5085C90.4446 46.5085 89.9332 46.6818 89.5185 47.0284C89.1094 47.375 88.7997 47.8466 88.5895 48.4432C88.3849 49.0398 88.2827 49.7188 88.2827 50.4801C88.2827 51.2415 88.3849 51.9205 88.5895 52.517C88.7997 53.1136 89.1094 53.5852 89.5185 53.9318C89.9332 54.2727 90.4446 54.4432 91.0526 54.4432ZM108.471 57H104.516L110.542 39.5455H115.298L121.315 57H117.36L112.988 43.5341H112.852L108.471 57ZM108.224 50.1392H117.565V53.0199H108.224V50.1392ZM126.978 39.5455V57H123.347V39.5455H126.978ZM133.517 39.5455V57H129.886V39.5455H133.517Z" fill="#0B1A55"/>
</g>
<path d="M32.344 28.224C32.344 28.48 32.392 28.6827 32.488 28.832C32.5947 28.9813 32.7173 29.0933 32.856 29.168C33.0053 29.232 33.16 29.2747 33.32 29.296C33.4907 29.3173 33.64 29.328 33.768 29.328V30C33.64 30 33.48 29.9947 33.288 29.984C33.096 29.9627 32.8987 29.9413 32.696 29.92C32.4933 29.8987 32.296 29.8827 32.104 29.872C31.912 29.8507 31.752 29.84 31.624 29.84C31.496 29.84 31.336 29.8507 31.144 29.872C30.952 29.8827 30.7547 29.8987 30.552 29.92C30.3493 29.9413 30.152 29.9627 29.96 29.984C29.768 29.9947 29.608 30 29.48 30V29.328C29.6187 29.328 29.7733 29.3173 29.944 29.296C30.1147 29.2747 30.2693 29.232 30.408 29.168C30.5467 29.0933 30.664 28.9813 30.76 28.832C30.856 28.6827 30.904 28.48 30.904 28.224V21.888C30.904 21.4933 30.8933 21.168 30.872 20.912C30.8613 20.6453 30.8187 20.4427 30.744 20.304C30.6693 20.1547 30.5627 20.0533 30.424 20C30.2853 19.936 30.0933 19.904 29.848 19.904V19.344C30.1147 19.344 30.344 19.328 30.536 19.296C30.7387 19.264 30.92 19.216 31.08 19.152C31.24 19.088 31.384 19.0133 31.512 18.928C31.6507 18.8427 31.7947 18.752 31.944 18.656H32.344V28.224ZM32.632 23.728C32.76 23.8133 32.9467 23.9147 33.192 24.032C33.4373 24.1493 33.7627 24.208 34.168 24.208C34.6693 24.208 35.064 24.1067 35.352 23.904C35.64 23.6907 35.8533 23.4347 35.992 23.136C36.1413 22.8373 36.232 22.5227 36.264 22.192C36.3067 21.8613 36.328 21.5787 36.328 21.344C36.328 20.96 36.2907 20.5493 36.216 20.112C36.1413 19.6747 35.9707 19.2747 35.704 18.912C35.4373 18.5493 35.0427 18.2507 34.52 18.016C34.008 17.7707 33.3147 17.648 32.44 17.648C31.6933 17.648 31.0587 17.744 30.536 17.936C30.024 18.128 29.608 18.4053 29.288 18.768C28.968 19.1307 28.7333 19.584 28.584 20.128C28.4453 20.6613 28.376 21.2693 28.376 21.952C28.2373 21.952 28.0827 21.9253 27.912 21.872C27.752 21.8187 27.6027 21.7387 27.464 21.632C27.3253 21.5253 27.208 21.392 27.112 21.232C27.016 21.072 26.968 20.8853 26.968 20.672C26.968 20.4267 27.0373 20.1973 27.176 19.984C27.3147 19.76 27.5173 19.648 27.784 19.648C27.6987 19.584 27.64 19.4773 27.608 19.328C27.5867 19.1787 27.576 19.0507 27.576 18.944C27.576 18.5813 27.72 18.272 28.008 18.016C28.296 17.7493 28.664 17.536 29.112 17.376C29.5707 17.2053 30.0773 17.0827 30.632 17.008C31.1973 16.9333 31.7573 16.896 32.312 16.896C33.368 16.896 34.2533 17.0187 34.968 17.264C35.6827 17.5093 36.2587 17.8347 36.696 18.24C37.1333 18.6347 37.448 19.0933 37.64 19.616C37.832 20.128 37.928 20.656 37.928 21.2C37.928 21.648 37.864 22.1013 37.736 22.56C37.6187 23.008 37.4267 23.4133 37.16 23.776C36.8933 24.128 36.5467 24.416 36.12 24.64C35.704 24.864 35.2027 24.976 34.616 24.976C34.2427 24.976 33.928 24.9333 33.672 24.848C33.4267 24.7627 33.2293 24.656 33.08 24.528C32.9307 24.4 32.8187 24.272 32.744 24.144C32.68 24.0053 32.6427 23.888 32.632 23.792V23.728ZM41.3685 28.416C41.3685 28.6293 41.4005 28.8053 41.4645 28.944C41.5392 29.0827 41.6245 29.1947 41.7205 29.28C41.8272 29.3653 41.9445 29.4293 42.0725 29.472C42.2112 29.504 42.3445 29.52 42.4725 29.52V30C42.3445 30 42.2005 29.9947 42.0405 29.984C41.8912 29.9627 41.7312 29.9413 41.5605 29.92C41.3898 29.8987 41.2245 29.8827 41.0645 29.872C40.9152 29.8507 40.7765 29.84 40.6485 29.84C40.5205 29.84 40.3765 29.8507 40.2165 29.872C40.0672 29.8827 39.9072 29.8987 39.7365 29.92C39.5658 29.9413 39.4005 29.9627 39.2405 29.984C39.0912 29.9947 38.9525 30 38.8245 30V29.52C39.1125 29.52 39.3685 29.44 39.5925 29.28C39.8165 29.12 39.9285 28.832 39.9285 28.416V25.744C39.9285 25.3493 39.9178 25.024 39.8965 24.768C39.8858 24.5013 39.8432 24.2987 39.7685 24.16C39.6938 24.0107 39.5872 23.9093 39.4485 23.856C39.3098 23.792 39.1178 23.76 38.8725 23.76V23.36C39.1392 23.36 39.3685 23.344 39.5605 23.312C39.7632 23.28 39.9445 23.232 40.1045 23.168C40.2645 23.104 40.4085 23.0293 40.5365 22.944C40.6752 22.8587 40.8192 22.768 40.9685 22.672H41.3685V24.336C41.6245 23.7067 41.9285 23.248 42.2805 22.96C42.6432 22.6613 43.0112 22.512 43.3845 22.512C43.6192 22.512 43.8325 22.5493 44.0245 22.624C44.2165 22.6987 44.3125 22.8267 44.3125 23.008C44.5258 23.008 44.6912 23.0773 44.8085 23.216C44.9365 23.3547 45.0005 23.5467 45.0005 23.792C45.0005 24.0693 44.9045 24.3147 44.7125 24.528C44.5205 24.7307 44.2005 24.8747 43.7525 24.96C43.7952 24.8 43.8165 24.64 43.8165 24.48C43.8165 24.096 43.7258 23.8133 43.5445 23.632C43.3738 23.4507 43.1818 23.36 42.9685 23.36C42.7978 23.36 42.6165 23.4507 42.4245 23.632C42.2432 23.8027 42.0725 24.0427 41.9125 24.352C41.7525 24.6613 41.6192 25.024 41.5125 25.44C41.4165 25.8453 41.3685 26.288 41.3685 26.768V28.416ZM49.4473 30.224C48.9139 30.224 48.4179 30.1333 47.9593 29.952C47.5113 29.76 47.1166 29.4933 46.7753 29.152C46.4339 28.8107 46.1673 28.4 45.9753 27.92C45.7833 27.44 45.6873 26.9013 45.6873 26.304C45.6873 25.696 45.7833 25.1573 45.9753 24.688C46.1673 24.2187 46.4339 23.824 46.7753 23.504C47.1166 23.1733 47.5113 22.928 47.9593 22.768C48.4179 22.5973 48.9139 22.512 49.4473 22.512C49.9699 22.512 50.4606 22.5973 50.9193 22.768C51.3779 22.928 51.7779 23.1733 52.1193 23.504C52.4606 23.824 52.7273 24.2187 52.9193 24.688C53.1113 25.1573 53.2073 25.696 53.2073 26.304C53.2073 26.912 53.1113 27.456 52.9193 27.936C52.7273 28.416 52.4606 28.8267 52.1193 29.168C51.7779 29.5093 51.3779 29.7707 50.9193 29.952C50.4606 30.1333 49.9699 30.224 49.4473 30.224ZM49.4633 29.488C49.8579 29.488 50.1939 29.4027 50.4713 29.232C50.7486 29.0613 50.9779 28.832 51.1593 28.544C51.3406 28.2453 51.4739 27.904 51.5593 27.52C51.6446 27.136 51.6873 26.7307 51.6873 26.304C51.6873 25.888 51.6446 25.4933 51.5593 25.12C51.4739 24.7467 51.3406 24.4267 51.1593 24.16C50.9779 23.8827 50.7433 23.664 50.4553 23.504C50.1779 23.344 49.8419 23.264 49.4473 23.264C49.0526 23.264 48.7113 23.344 48.4233 23.504C48.1459 23.6533 47.9166 23.8667 47.7353 24.144C47.5539 24.4107 47.4206 24.7307 47.3353 25.104C47.2499 25.4773 47.2073 25.8773 47.2073 26.304C47.2073 26.7307 47.2499 27.136 47.3353 27.52C47.4206 27.904 47.5539 28.2453 47.7353 28.544C47.9273 28.832 48.1619 29.0613 48.4393 29.232C48.7273 29.4027 49.0686 29.488 49.4633 29.488ZM61.7794 28.416C61.7794 28.6293 61.8114 28.8053 61.8754 28.944C61.95 29.0827 62.0354 29.1947 62.1314 29.28C62.238 29.3653 62.3554 29.4293 62.4834 29.472C62.622 29.504 62.7554 29.52 62.8834 29.52V30C62.7554 30 62.6114 29.9947 62.4514 29.984C62.302 29.9627 62.142 29.9413 61.9714 29.92C61.8007 29.8987 61.6354 29.8827 61.4754 29.872C61.326 29.8507 61.1874 29.84 61.0594 29.84C60.9314 29.84 60.7874 29.8507 60.6274 29.872C60.478 29.8827 60.318 29.8987 60.1474 29.92C59.9767 29.9413 59.8114 29.9627 59.6514 29.984C59.502 29.9947 59.3634 30 59.2354 30V29.52C59.5234 29.52 59.7794 29.44 60.0034 29.28C60.2274 29.12 60.3394 28.832 60.3394 28.416V25.936C60.3394 25.4133 60.302 24.9813 60.2274 24.64C60.1634 24.2987 60.0674 24.0267 59.9394 23.824C59.8114 23.6213 59.6567 23.4773 59.4754 23.392C59.3047 23.3067 59.118 23.264 58.9154 23.264C58.67 23.264 58.43 23.3173 58.1954 23.424C57.9607 23.5307 57.7474 23.7013 57.5554 23.936C57.3634 24.16 57.2087 24.4533 57.0914 24.816C56.974 25.1787 56.9154 25.6213 56.9154 26.144V28.416C56.9154 28.6293 56.9474 28.8053 57.0114 28.944C57.086 29.0827 57.1714 29.1947 57.2674 29.28C57.374 29.3653 57.4914 29.4293 57.6194 29.472C57.758 29.504 57.8914 29.52 58.0194 29.52V30C57.8914 30 57.7474 29.9947 57.5874 29.984C57.438 29.9627 57.278 29.9413 57.1074 29.92C56.9367 29.8987 56.7714 29.8827 56.6114 29.872C56.462 29.8507 56.3234 29.84 56.1954 29.84C56.0674 29.84 55.9234 29.8507 55.7634 29.872C55.614 29.8827 55.454 29.8987 55.2834 29.92C55.1127 29.9413 54.9474 29.9627 54.7874 29.984C54.638 29.9947 54.4994 30 54.3714 30V29.52C54.6594 29.52 54.9154 29.44 55.1394 29.28C55.3634 29.12 55.4754 28.832 55.4754 28.416V25.744C55.4754 25.3493 55.4647 25.024 55.4434 24.768C55.4327 24.5013 55.39 24.2987 55.3154 24.16C55.2407 24.0107 55.134 23.9093 54.9954 23.856C54.8567 23.792 54.6647 23.76 54.4194 23.76V23.36C54.686 23.36 54.9154 23.344 55.1074 23.312C55.31 23.28 55.4914 23.232 55.6514 23.168C55.8114 23.104 55.9554 23.0293 56.0834 22.944C56.222 22.8587 56.366 22.768 56.5154 22.672H56.9154V23.792C57.0327 23.6107 57.1554 23.4453 57.2834 23.296C57.4114 23.136 57.566 22.9973 57.7474 22.88C57.9394 22.7627 58.158 22.672 58.4034 22.608C58.6594 22.544 58.9634 22.512 59.3154 22.512C59.7954 22.512 60.222 22.5973 60.5954 22.768C60.9687 22.9387 61.2567 23.28 61.4594 23.792C61.5447 23.6427 61.662 23.4933 61.8114 23.344C61.9607 23.184 62.1367 23.0453 62.3394 22.928C62.542 22.8 62.7714 22.6987 63.0274 22.624C63.2834 22.5493 63.566 22.512 63.8754 22.512C64.2914 22.512 64.67 22.5867 65.0114 22.736C65.3527 22.8853 65.646 23.1253 65.8914 23.456C66.1367 23.776 66.3234 24.2027 66.4514 24.736C66.59 25.2587 66.6594 25.8987 66.6594 26.656V28.24C66.6594 28.848 66.6807 29.3387 66.7234 29.712C66.7767 30.0747 66.8407 30.352 66.9154 30.544C67.0007 30.7467 67.0967 30.88 67.2034 30.944C67.3207 31.0187 67.438 31.056 67.5554 31.056C67.7047 31.056 67.838 31.024 67.9554 30.96C68.0727 30.9067 68.174 30.8373 68.2594 30.752L68.3394 30.816C68.222 31.0933 68.0514 31.296 67.8274 31.424C67.614 31.5627 67.3794 31.632 67.1234 31.632C66.814 31.632 66.5527 31.5467 66.3394 31.376C66.1367 31.2053 66.0354 30.976 66.0354 30.688C65.662 30.688 65.4167 30.5013 65.2994 30.128C65.1927 29.7547 65.1394 29.2053 65.1394 28.48V25.968C65.1394 25.072 65.0327 24.4 64.8194 23.952C64.606 23.4933 64.2434 23.264 63.7314 23.264C63.582 23.264 63.3954 23.3013 63.1714 23.376C62.9474 23.44 62.7287 23.568 62.5154 23.76C62.3127 23.952 62.1367 24.224 61.9874 24.576C61.8487 24.9173 61.7794 25.3653 61.7794 25.92V28.416ZM72.166 30.224C71.6327 30.224 71.1367 30.1333 70.678 29.952C70.23 29.76 69.8353 29.4933 69.494 29.152C69.1527 28.8107 68.886 28.4 68.694 27.92C68.502 27.44 68.406 26.9013 68.406 26.304C68.406 25.696 68.502 25.1573 68.694 24.688C68.886 24.2187 69.1527 23.824 69.494 23.504C69.8353 23.1733 70.23 22.928 70.678 22.768C71.1367 22.5973 71.6327 22.512 72.166 22.512C72.6887 22.512 73.1793 22.5973 73.638 22.768C74.0967 22.928 74.4967 23.1733 74.838 23.504C75.1793 23.824 75.446 24.2187 75.638 24.688C75.83 25.1573 75.926 25.696 75.926 26.304C75.926 26.912 75.83 27.456 75.638 27.936C75.446 28.416 75.1793 28.8267 74.838 29.168C74.4967 29.5093 74.0967 29.7707 73.638 29.952C73.1793 30.1333 72.6887 30.224 72.166 30.224ZM72.182 29.488C72.5767 29.488 72.9127 29.4027 73.19 29.232C73.4673 29.0613 73.6967 28.832 73.878 28.544C74.0593 28.2453 74.1927 27.904 74.278 27.52C74.3633 27.136 74.406 26.7307 74.406 26.304C74.406 25.888 74.3633 25.4933 74.278 25.12C74.1927 24.7467 74.0593 24.4267 73.878 24.16C73.6967 23.8827 73.462 23.664 73.174 23.504C72.8967 23.344 72.5607 23.264 72.166 23.264C71.7713 23.264 71.43 23.344 71.142 23.504C70.8647 23.6533 70.6353 23.8667 70.454 24.144C70.2727 24.4107 70.1393 24.7307 70.054 25.104C69.9687 25.4773 69.926 25.8773 69.926 26.304C69.926 26.7307 69.9687 27.136 70.054 27.52C70.1393 27.904 70.2727 28.2453 70.454 28.544C70.646 28.832 70.8807 29.0613 71.158 29.232C71.446 29.4027 71.7873 29.488 72.182 29.488ZM80.6261 30.224C79.9968 30.224 79.5008 30.1013 79.1381 29.856C78.7861 29.6 78.5195 29.28 78.3381 28.896C78.1568 28.512 78.0395 28.096 77.9861 27.648C77.9435 27.2 77.9221 26.7787 77.9221 26.384C77.9221 25.7973 77.9115 25.3387 77.8901 25.008C77.8795 24.6667 77.8368 24.4107 77.7621 24.24C77.6981 24.0693 77.5968 23.9627 77.4581 23.92C77.3195 23.8667 77.1221 23.84 76.8661 23.84V23.36C77.1328 23.36 77.3568 23.344 77.5381 23.312C77.7301 23.28 77.9008 23.232 78.0501 23.168C78.1995 23.104 78.3381 23.0293 78.4661 22.944C78.5941 22.8587 78.7328 22.768 78.8821 22.672H79.3621V26.048C79.3621 26.3147 79.3728 26.64 79.3941 27.024C79.4155 27.408 79.4795 27.776 79.5861 28.128C79.6928 28.48 79.8528 28.784 80.0661 29.04C80.2795 29.2853 80.5781 29.408 80.9621 29.408C81.2928 29.408 81.5861 29.3067 81.8421 29.104C82.0981 28.9013 82.3115 28.6347 82.4821 28.304C82.6528 27.9627 82.7808 27.568 82.8661 27.12C82.9515 26.672 82.9941 26.1973 82.9941 25.696C82.9941 25.3227 82.9621 24.9867 82.8981 24.688C82.8448 24.3787 82.7435 24.1173 82.5941 23.904C82.4555 23.6907 82.2581 23.52 82.0021 23.392C81.7568 23.2533 81.4421 23.1627 81.0581 23.12C81.1755 22.9387 81.3355 22.7947 81.5381 22.688C81.7515 22.5707 81.9648 22.512 82.1781 22.512C82.2635 22.512 82.3541 22.5227 82.4501 22.544C82.5568 22.5653 82.6528 22.5973 82.7381 22.64C82.8235 22.672 82.8928 22.72 82.9461 22.784C83.0101 22.848 83.0421 22.9227 83.0421 23.008C83.3941 23.008 83.6181 23.1573 83.7141 23.456C83.8208 23.7547 83.8741 24.24 83.8741 24.912C83.8741 25.5413 83.8368 26.1707 83.7621 26.8C83.6875 27.4293 83.5328 28 83.2981 28.512C83.0635 29.0133 82.7328 29.424 82.3061 29.744C81.8901 30.064 81.3301 30.224 80.6261 30.224ZM88.977 29.504C89.137 29.504 89.297 29.488 89.457 29.456C89.617 29.4133 89.7663 29.344 89.905 29.248C90.0543 29.1413 90.1877 28.9973 90.305 28.816C90.433 28.624 90.545 28.3733 90.641 28.064C90.8863 28.064 91.089 28.1227 91.249 28.24C91.409 28.3573 91.489 28.5387 91.489 28.784C91.489 29.008 91.4143 29.2107 91.265 29.392C91.1263 29.5733 90.9343 29.728 90.689 29.856C90.4543 29.9733 90.177 30.064 89.857 30.128C89.5477 30.192 89.2223 30.224 88.881 30.224C88.2943 30.224 87.777 30.1333 87.329 29.952C86.881 29.76 86.5077 29.4987 86.209 29.168C85.9103 28.8267 85.681 28.416 85.521 27.936C85.3717 27.456 85.297 26.928 85.297 26.352C85.297 25.1573 85.6117 24.2187 86.241 23.536C86.8703 22.8533 87.7663 22.512 88.929 22.512C89.0677 22.512 89.2063 22.5173 89.345 22.528C89.4837 22.5387 89.6117 22.5653 89.729 22.608C89.8463 22.64 89.9423 22.6933 90.017 22.768C90.0917 22.832 90.129 22.9173 90.129 23.024C90.289 23.024 90.449 23.056 90.609 23.12C90.7797 23.184 90.9343 23.28 91.073 23.408C91.2223 23.536 91.3397 23.7013 91.425 23.904C91.521 24.096 91.569 24.3307 91.569 24.608C91.569 25.0027 91.473 25.328 91.281 25.584C91.089 25.84 90.8437 26.048 90.545 26.208C90.257 26.3573 89.937 26.464 89.585 26.528C89.2437 26.5813 88.9183 26.608 88.609 26.608C88.257 26.608 87.9263 26.5813 87.617 26.528C87.3183 26.4747 87.0623 26.4107 86.849 26.336V26.4C86.849 26.848 86.8863 27.264 86.961 27.648C87.0357 28.032 87.153 28.3627 87.313 28.64C87.4837 28.9067 87.7023 29.12 87.969 29.28C88.2463 29.4293 88.5823 29.504 88.977 29.504ZM88.801 23.264C88.225 23.264 87.7823 23.472 87.473 23.888C87.1637 24.304 86.9663 24.88 86.881 25.616C87.0623 25.7333 87.3077 25.8133 87.617 25.856C87.937 25.888 88.241 25.904 88.529 25.904C89.105 25.904 89.505 25.8133 89.729 25.632C89.9637 25.4507 90.081 25.136 90.081 24.688C90.081 24.1547 89.9583 23.7867 89.713 23.584C89.4677 23.3707 89.1637 23.264 88.801 23.264ZM95.2904 28.416C95.2904 28.6293 95.3224 28.8053 95.3864 28.944C95.461 29.0827 95.5464 29.1947 95.6424 29.28C95.749 29.3653 95.8664 29.4293 95.9944 29.472C96.133 29.504 96.2664 29.52 96.3944 29.52V30C96.2664 30 96.1224 29.9947 95.9624 29.984C95.813 29.9627 95.653 29.9413 95.4824 29.92C95.3117 29.8987 95.1464 29.8827 94.9864 29.872C94.837 29.8507 94.6984 29.84 94.5704 29.84C94.4424 29.84 94.2984 29.8507 94.1384 29.872C93.989 29.8827 93.829 29.8987 93.6584 29.92C93.4877 29.9413 93.3224 29.9627 93.1624 29.984C93.013 29.9947 92.8744 30 92.7464 30V29.52C93.0344 29.52 93.2904 29.44 93.5144 29.28C93.7384 29.12 93.8504 28.832 93.8504 28.416V25.744C93.8504 25.3493 93.8397 25.024 93.8184 24.768C93.8077 24.5013 93.765 24.2987 93.6904 24.16C93.6157 24.0107 93.509 23.9093 93.3704 23.856C93.2317 23.792 93.0397 23.76 92.7944 23.76V23.36C93.061 23.36 93.2904 23.344 93.4824 23.312C93.685 23.28 93.8664 23.232 94.0264 23.168C94.1864 23.104 94.3304 23.0293 94.4584 22.944C94.597 22.8587 94.741 22.768 94.8904 22.672H95.2904V24.336C95.5464 23.7067 95.8504 23.248 96.2024 22.96C96.565 22.6613 96.933 22.512 97.3064 22.512C97.541 22.512 97.7544 22.5493 97.9464 22.624C98.1384 22.6987 98.2344 22.8267 98.2344 23.008C98.4477 23.008 98.613 23.0773 98.7304 23.216C98.8584 23.3547 98.9224 23.5467 98.9224 23.792C98.9224 24.0693 98.8264 24.3147 98.6344 24.528C98.4424 24.7307 98.1224 24.8747 97.6744 24.96C97.717 24.8 97.7384 24.64 97.7384 24.48C97.7384 24.096 97.6477 23.8133 97.4664 23.632C97.2957 23.4507 97.1037 23.36 96.8904 23.36C96.7197 23.36 96.5384 23.4507 96.3464 23.632C96.165 23.8027 95.9944 24.0427 95.8344 24.352C95.6744 24.6613 95.541 25.024 95.4344 25.44C95.3384 25.8453 95.2904 26.288 95.2904 26.768V28.416ZM105.079 24C105.079 24.4053 104.941 24.704 104.663 24.896C104.397 25.0773 104.093 25.168 103.751 25.168L103.703 25.088C103.778 25.056 103.858 24.976 103.943 24.848C104.029 24.72 104.071 24.5493 104.071 24.336C104.071 23.9733 103.938 23.7067 103.671 23.536C103.405 23.3547 103.053 23.264 102.615 23.264C102.509 23.264 102.381 23.2747 102.231 23.296C102.082 23.3173 101.938 23.3653 101.799 23.44C101.661 23.5147 101.538 23.6213 101.431 23.76C101.335 23.8987 101.287 24.08 101.287 24.304C101.287 24.6027 101.389 24.8373 101.591 25.008C101.794 25.1787 102.045 25.3227 102.343 25.44C102.653 25.5573 102.983 25.6693 103.335 25.776C103.687 25.8827 104.013 26.0213 104.311 26.192C104.621 26.3627 104.877 26.5867 105.079 26.864C105.282 27.1413 105.383 27.5093 105.383 27.968C105.383 28.7147 105.101 29.28 104.535 29.664C103.981 30.0373 103.245 30.224 102.327 30.224C102.263 30.224 102.162 30.2187 102.023 30.208C101.885 30.208 101.746 30.1973 101.607 30.176C101.479 30.1547 101.362 30.1227 101.255 30.08C101.149 30.0373 101.095 29.9733 101.095 29.888C100.647 29.888 100.311 29.7707 100.087 29.536C99.8633 29.3013 99.7513 29.0027 99.7513 28.64C99.7513 28.2453 99.8633 27.9627 100.087 27.792C100.322 27.6213 100.589 27.5253 100.887 27.504L100.919 27.552C100.834 27.648 100.781 27.776 100.759 27.936C100.738 28.0853 100.727 28.2027 100.727 28.288C100.727 28.5227 100.781 28.72 100.887 28.88C100.994 29.0293 101.127 29.152 101.287 29.248C101.447 29.3333 101.623 29.3973 101.815 29.44C102.018 29.472 102.215 29.488 102.407 29.488C102.45 29.488 102.546 29.4827 102.695 29.472C102.855 29.4613 103.015 29.424 103.175 29.36C103.335 29.2853 103.479 29.1733 103.607 29.024C103.735 28.864 103.799 28.6453 103.799 28.368C103.799 28.0373 103.703 27.776 103.511 27.584C103.319 27.392 103.074 27.232 102.775 27.104C102.487 26.976 102.173 26.8587 101.831 26.752C101.49 26.6347 101.17 26.496 100.871 26.336C100.583 26.176 100.343 25.968 100.151 25.712C99.9593 25.4453 99.8633 25.0933 99.8633 24.656C99.8633 24.2187 99.9593 23.8613 100.151 23.584C100.343 23.3067 100.583 23.088 100.871 22.928C101.159 22.768 101.463 22.6613 101.783 22.608C102.114 22.544 102.413 22.512 102.679 22.512C103.021 22.512 103.282 22.544 103.463 22.608C103.645 22.672 103.735 22.7627 103.735 22.88C103.895 22.88 104.055 22.9013 104.215 22.944C104.375 22.976 104.519 23.0347 104.647 23.12C104.775 23.2053 104.877 23.3227 104.951 23.472C105.037 23.6107 105.079 23.7867 105.079 24ZM110.415 29.504C110.575 29.504 110.735 29.488 110.895 29.456C111.055 29.4133 111.204 29.344 111.343 29.248C111.492 29.1413 111.625 28.9973 111.743 28.816C111.871 28.624 111.983 28.3733 112.079 28.064C112.324 28.064 112.527 28.1227 112.687 28.24C112.847 28.3573 112.927 28.5387 112.927 28.784C112.927 29.008 112.852 29.2107 112.703 29.392C112.564 29.5733 112.372 29.728 112.127 29.856C111.892 29.9733 111.615 30.064 111.295 30.128C110.985 30.192 110.66 30.224 110.319 30.224C109.732 30.224 109.215 30.1333 108.767 29.952C108.319 29.76 107.945 29.4987 107.647 29.168C107.348 28.8267 107.119 28.416 106.959 27.936C106.809 27.456 106.735 26.928 106.735 26.352C106.735 25.1573 107.049 24.2187 107.679 23.536C108.308 22.8533 109.204 22.512 110.367 22.512C110.505 22.512 110.644 22.5173 110.783 22.528C110.921 22.5387 111.049 22.5653 111.167 22.608C111.284 22.64 111.38 22.6933 111.455 22.768C111.529 22.832 111.567 22.9173 111.567 23.024C111.727 23.024 111.887 23.056 112.047 23.12C112.217 23.184 112.372 23.28 112.511 23.408C112.66 23.536 112.777 23.7013 112.863 23.904C112.959 24.096 113.007 24.3307 113.007 24.608C113.007 25.0027 112.911 25.328 112.719 25.584C112.527 25.84 112.281 26.048 111.983 26.208C111.695 26.3573 111.375 26.464 111.023 26.528C110.681 26.5813 110.356 26.608 110.047 26.608C109.695 26.608 109.364 26.5813 109.055 26.528C108.756 26.4747 108.5 26.4107 108.287 26.336V26.4C108.287 26.848 108.324 27.264 108.399 27.648C108.473 28.032 108.591 28.3627 108.751 28.64C108.921 28.9067 109.14 29.12 109.407 29.28C109.684 29.4293 110.02 29.504 110.415 29.504ZM110.239 23.264C109.663 23.264 109.22 23.472 108.911 23.888C108.601 24.304 108.404 24.88 108.319 25.616C108.5 25.7333 108.745 25.8133 109.055 25.856C109.375 25.888 109.679 25.904 109.967 25.904C110.543 25.904 110.943 25.8133 111.167 25.632C111.401 25.4507 111.519 25.136 111.519 24.688C111.519 24.1547 111.396 23.7867 111.151 23.584C110.905 23.3707 110.601 23.264 110.239 23.264Z" fill="#1D1617"/>
</svg>
